<?xml version="1.0" encoding="UTF-8"?>
<svg version="1.1" xmlns="http://www.w3.org/2000/svg" width="500" height="448">
<path d="M0 0 C1.70504922 -0.00346025 3.4100962 -0.00822727 5.11513853 -0.01418173 C9.78215024 -0.02667094 14.4489772 -0.02053081 19.11598945 -0.01122308 C24.15628273 -0.00442441 29.19654465 -0.01491788 34.23683167 -0.02316284 C44.10352363 -0.03649362 53.97014707 -0.03362534 63.8368417 -0.02492492 C71.85664184 -0.01814622 79.87642279 -0.01723247 87.89622498 -0.02049637 C89.03820704 -0.02095607 90.1801891 -0.02141577 91.35677668 -0.0218894 C93.67678504 -0.02284858 95.99679339 -0.02382122 98.31680173 -0.02480717 C120.0649153 -0.03335915 141.81299093 -0.02352994 163.56109828 -0.00740607 C182.21673589 0.00599693 200.8723175 0.00366878 219.5279541 -0.01016235 C241.19893773 -0.02622155 262.86988811 -0.03253519 284.54087687 -0.02332556 C286.85228888 -0.02236993 289.16370089 -0.02142682 291.47511292 -0.02049637 C293.18094373 -0.01980213 293.18094373 -0.01980213 294.92123577 -0.01909386 C302.93020026 -0.016505 310.93914364 -0.02087275 318.94810486 -0.02793503 C328.71006709 -0.03635398 338.47195696 -0.03406152 348.23391092 -0.0180928 C353.21336497 -0.01021546 358.19269844 -0.0071094 363.17215157 -0.01704025 C367.73303584 -0.02599867 372.29368806 -0.02103534 376.85455137 -0.0051076 C378.50179267 -0.00176467 380.14905369 -0.00344286 381.79628223 -0.01073496 C394.96074067 -0.06452869 405.27199787 0.95805565 415.18566895 10.38095093 C423.80017801 19.31769849 423.62559553 31.77620149 423.56661987 43.45530701 C423.57008228 44.95910447 423.57485074 46.46289938 423.58080161 47.96668905 C423.5932611 52.07277294 423.58716442 56.17864616 423.57784295 60.28473055 C423.57103204 64.72309356 423.58154374 69.16142131 423.58978271 73.59977722 C423.60310017 82.28388305 423.60025127 90.96791096 423.59154479 99.65201981 C423.58476126 106.71117498 423.58385442 113.77030836 423.58711624 120.82946587 C423.58757594 121.83531974 423.58803564 122.84117361 423.58850927 123.87750791 C423.58946847 125.92106173 423.59044111 127.96461554 423.59142704 130.00816935 C423.599975 149.1557918 423.5901559 168.30337112 423.57402594 187.4509865 C423.56062126 203.87175469 423.56295325 220.29245927 423.57678223 236.71322632 C423.592845 255.79530952 423.59915323 274.87735496 423.58994544 293.95944399 C423.58898981 295.99504657 423.5880467 298.03064916 423.58711624 300.06625175 C423.58665341 301.06773591 423.58619059 302.06922006 423.58571374 303.10105221 C423.5831261 310.15022816 423.58748993 317.1993801 423.5945549 324.24855232 C423.60297775 332.84119419 423.60067315 341.43375385 423.58471267 350.02638633 C423.57684086 354.40839922 423.57371978 358.79027518 423.58366013 363.17228699 C423.59263001 367.18726794 423.58763662 371.20198561 423.57172747 375.21694284 C423.56838938 376.66563573 423.57005178 378.11435108 423.57735483 379.56302942 C423.63359772 391.6514036 422.53139352 401.21500772 414.18566895 410.38095093 C406.08610205 418.48051782 397.02813576 419.88801398 386.02728796 419.91592455 C384.42468409 419.90727856 382.82208224 419.89825203 381.21948242 419.8888855 C379.49793169 419.89349906 377.7763849 419.89985502 376.05484629 419.90779448 C371.34218161 419.92444845 366.62984213 419.91625933 361.91717649 419.9038496 C356.82779344 419.89478533 351.73846564 419.90877568 346.64909363 419.91976929 C336.6861311 419.93754436 326.7232892 419.933719 316.76032197 419.92211872 C308.66233289 419.91308071 300.56437757 419.911862 292.46638489 419.91621399 C291.31330138 419.91682692 290.16021787 419.91743985 288.97219244 419.91807136 C286.62963608 419.91935028 284.28707973 419.92064713 281.94452339 419.92196172 C259.98465812 419.93336456 238.02485967 419.92025844 216.06500536 419.89876026 C197.22742617 419.88088956 178.38994558 419.88399375 159.55236816 419.9024353 C137.67042655 419.92384722 115.78854348 419.93226595 93.90659285 419.91998625 C91.57271291 419.91871207 89.23883296 419.91745458 86.904953 419.91621399 C85.75667602 419.91559689 84.60839904 419.91497979 83.42532578 419.91434398 C75.33820845 419.91089206 67.2511283 419.91671606 59.16401672 419.9261322 C49.30687976 419.93735711 39.4498702 419.93430171 29.59274781 419.91300923 C24.56465655 419.90250552 19.5367776 419.89836551 14.50868797 419.91160583 C9.90332939 419.92354948 5.29837938 419.91693462 0.69305772 419.89569563 C-0.97033244 419.89123793 -2.63375732 419.89347708 -4.29712504 419.90319878 C-16.27960486 419.9678438 -25.98131266 418.84253096 -35.05651855 410.31845093 C-39.77925326 405.11294778 -42.88972891 399.80757436 -43.0164299 392.69609261 C-43.03572288 391.72865096 -43.05501586 390.76120932 -43.07489347 389.76445127 C-43.09900132 388.16866935 -43.09900132 388.16866935 -43.12359619 386.54064941 C-43.15399955 384.85176987 -43.15399955 384.85176987 -43.18501711 383.12877154 C-43.25062361 379.34457688 -43.30797538 375.56031653 -43.36413574 371.77597046 C-43.38509218 370.43946846 -43.40617137 369.10296838 -43.42736959 367.76647019 C-43.94428369 334.85524896 -43.99625224 301.94322571 -44.01451969 269.02861166 C-44.01734125 263.98616661 -44.02158516 258.9437233 -44.02602386 253.90127945 C-44.03812148 239.83893647 -44.04846187 225.7765948 -44.05189896 211.71424675 C-44.05211852 210.82891013 -44.05233809 209.9435735 -44.05256431 209.0314085 C-44.05278259 208.14461522 -44.05300086 207.25782195 -44.05322576 206.34415615 C-44.05366915 204.54864112 -44.05411572 202.7531261 -44.05456543 200.95761108 C-44.05478686 200.0670737 -44.05500829 199.17653632 -44.05523643 198.25901295 C-44.0592225 183.68754333 -44.07683287 169.1161225 -44.09992495 154.54467188 C-44.12363798 139.45705661 -44.13609953 124.36946606 -44.13726687 109.28183186 C-44.13817973 100.85955079 -44.14384032 92.43733486 -44.16208649 84.01507187 C-44.17748149 76.88753638 -44.18260861 69.76008656 -44.17434838 62.63253759 C-44.17044988 59.00558976 -44.17133501 55.3788147 -44.18540573 51.75188828 C-44.20053229 47.81736718 -44.19226222 43.88308796 -44.18182373 39.94854736 C-44.18988014 38.81240899 -44.19793654 37.67627062 -44.20623708 36.50570381 C-44.14082597 25.95668563 -42.22442897 17.19431948 -34.81433105 9.38095093 C-24.79791048 -0.1184931 -13.03666952 -0.05771189 0 0 Z M19.18566895 46.38095093 C19.18566895 77.40095093 19.18566895 108.42095093 19.18566895 140.38095093 C24.46566895 140.38095093 29.74566895 140.38095093 35.18566895 140.38095093 C35.18566895 109.36095093 35.18566895 78.34095093 35.18566895 46.38095093 C29.90566895 46.38095093 24.62566895 46.38095093 19.18566895 46.38095093 Z M75.18566895 46.38095093 C75.18566895 77.40095093 75.18566895 108.42095093 75.18566895 140.38095093 C80.46566895 140.38095093 85.74566895 140.38095093 91.18566895 140.38095093 C91.18566895 127.51095093 91.18566895 114.64095093 91.18566895 101.38095093 C99.43566895 101.38095093 107.68566895 101.38095093 116.18566895 101.38095093 C117.17566895 104.35095093 118.16566895 107.32095093 119.18566895 110.38095093 C120.76945105 114.73417859 122.41126874 119.06492051 124.0567627 123.39511108 C124.81921694 125.40346693 125.57677454 127.41362745 126.33410645 129.42391968 C126.81818885 130.70137434 127.30255322 131.9787222 127.78723145 133.25595093 C128.22374023 134.4083728 128.66024902 135.56079468 129.10998535 136.74813843 C129.9396377 139.26396622 129.9396377 139.26396622 131.18566895 140.38095093 C134.04834461 140.45420261 136.88638794 140.47333298 139.74816895 140.44345093 C140.95763184 140.43668335 140.95763184 140.43668335 142.19152832 140.42977905 C144.18960651 140.4179561 146.18764678 140.40002007 148.18566895 140.38095093 C145.26447288 131.18687068 141.67778572 122.25443207 138.14782715 113.28207397 C137.33076365 111.20285678 136.51777018 109.12208372 135.7052002 107.04110718 C135.45212601 106.40157608 135.19905182 105.76204498 134.93830872 105.10313416 C133.18566895 100.6072987 133.18566895 100.6072987 133.18566895 98.38095093 C135.01379395 97.04891968 135.01379395 97.04891968 137.43566895 95.56845093 C142.92765596 92.01633374 146.0127995 88.58659453 148.18566895 82.38095093 C149.88789603 72.42841356 149.26652653 64.61336903 143.5177002 56.13095093 C139.12320989 50.3575443 132.99470008 48.25671118 126.18566895 46.38095093 C122.0928859 45.89467297 118.0720851 45.90969917 113.9552002 45.99032593 C112.96370972 45.99435425 111.97221924 45.99838257 110.95068359 46.00253296 C107.29965308 46.02322581 103.64888945 46.07906834 99.99816895 46.13095093 C91.81004395 46.21345093 83.62191895 46.29595093 75.18566895 46.38095093 Z M205.18566895 46.38095093 C204.1955481 49.35131348 204.1955481 49.35131348 203.1854248 52.38168335 C199.63708496 63.02670288 196.08874512 73.67172241 192.54040527 84.31674194 C192.28168325 85.09292814 192.02296124 85.86911434 191.75639915 86.66882133 C191.23772166 88.22481322 190.71899552 89.78078889 190.20022011 91.33674812 C188.92854838 95.1510595 187.65769235 98.96563857 186.38864136 102.78082275 C184.23649239 109.24843805 182.07857132 115.71343761 179.87756348 122.16464233 C179.54406387 123.14709427 179.21056427 124.1295462 178.86695862 125.14176941 C178.27197806 126.89162527 177.67231932 128.63990147 177.0667572 130.38612366 C175.86382923 133.93384404 175.18566895 136.59340901 175.18566895 140.38095093 C179.47566895 140.38095093 183.76566895 140.38095093 188.18566895 140.38095093 C191.18435112 133.09843708 193.68383945 125.8864394 196.18566895 118.38095093 C208.39566895 118.05095093 220.60566895 117.72095093 233.18566895 117.38095093 C233.84566895 120.35095093 234.50566895 123.32095093 235.18566895 126.38095093 C236.01514246 128.91712903 236.88707113 131.44001474 237.81066895 133.94345093 C238.98629395 137.13001343 238.98629395 137.13001343 240.18566895 140.38095093 C245.79566895 140.38095093 251.40566895 140.38095093 257.18566895 140.38095093 C258.46172141 138.37404974 258.46172141 138.37404974 257.57597351 135.98855591 C257.2308522 134.98205994 256.8857309 133.97556396 256.53015137 132.93856812 C256.14191696 131.79426331 255.75368256 130.6499585 255.35368347 129.47097778 C254.9162774 128.20655606 254.47875874 126.94217327 254.0411377 125.67782593 C253.5921542 124.36273175 253.14386894 123.04739901 252.69624329 121.73184204 C251.50485278 118.23610427 250.30465037 114.74345559 249.10241699 111.25143433 C247.92308862 107.82222222 246.75062621 104.39066885 245.57824707 100.95907593 C245.1137436 99.59957729 244.64923554 98.24008022 244.1847229 96.88058472 C243.95483799 96.20771927 243.72495308 95.53485382 243.48810196 94.84159851 C242.79113348 92.8028136 242.09309145 90.76439876 241.39486694 88.7260437 C236.57298101 74.63945336 231.87157415 60.51326865 227.18566895 46.38095093 C219.92566895 46.38095093 212.66566895 46.38095093 205.18566895 46.38095093 Z M288.18566895 46.38095093 C288.18566895 77.40095093 288.18566895 108.42095093 288.18566895 140.38095093 C292.47566895 140.38095093 296.76566895 140.38095093 301.18566895 140.38095093 C301.51566895 117.94095093 301.84566895 95.50095093 302.18566895 72.38095093 C304.97004395 77.08345093 307.75441895 81.78595093 310.62316895 86.63095093 C317.21570639 97.74685618 323.84892635 108.83658262 330.56066895 119.88095093 C330.91225067 120.45978027 331.2638324 121.03860962 331.62606812 121.63497925 C333.24908892 124.30576452 334.87952965 126.96864555 336.54797363 129.61141968 C338.18566895 132.38095093 338.18566895 132.38095093 339.20617676 134.93173218 C340.17528609 137.54388711 340.17528609 137.54388711 343.18566895 140.38095093 C348.46566895 140.38095093 353.74566895 140.38095093 359.18566895 140.38095093 C359.18566895 109.36095093 359.18566895 78.34095093 359.18566895 46.38095093 C354.89566895 46.38095093 350.60566895 46.38095093 346.18566895 46.38095093 C345.85566895 67.50095093 345.52566895 88.62095093 345.18566895 110.38095093 C342.21566895 105.10095093 339.24566895 99.82095093 336.18566895 94.38095093 C333.06599397 89.14607742 333.06599397 89.14607742 329.92004395 83.92782593 C327.65774979 80.18079129 325.42693294 76.4154542 323.20129395 72.64657593 C322.84720963 72.04730789 322.49312531 71.44803986 322.12831116 70.83061218 C320.68812394 68.39284316 319.24809025 65.95499084 317.81112671 63.51531982 C316.79553453 61.79126767 315.77773988 60.06851353 314.7598877 58.34579468 C314.16780518 57.34153442 313.57572266 56.33727417 312.96569824 55.30258179 C311.12204984 52.27653044 309.15122044 49.32927817 307.18566895 46.38095093 C300.91566895 46.38095093 294.64566895 46.38095093 288.18566895 46.38095093 Z M19.18566895 154.38095093 C19.18566895 185.40095093 19.18566895 216.42095093 19.18566895 248.38095093 C24.79566895 248.38095093 30.40566895 248.38095093 36.18566895 248.38095093 C36.18566895 235.18095093 36.18566895 221.98095093 36.18566895 208.38095093 C47.07566895 208.38095093 57.96566895 208.38095093 69.18566895 208.38095093 C69.18566895 204.09095093 69.18566895 199.80095093 69.18566895 195.38095093 C58.62566895 195.05095093 48.06566895 194.72095093 37.18566895 194.38095093 C36.69066895 181.51095093 36.69066895 181.51095093 36.18566895 168.38095093 C50.04566895 168.38095093 63.90566895 168.38095093 78.18566895 168.38095093 C78.18566895 163.76095093 78.18566895 159.14095093 78.18566895 154.38095093 C58.71566895 154.38095093 39.24566895 154.38095093 19.18566895 154.38095093 Z M113.18566895 154.38095093 C113.18566895 185.40095093 113.18566895 216.42095093 113.18566895 248.38095093 C118.79566895 248.38095093 124.40566895 248.38095093 130.18566895 248.38095093 C130.18566895 217.36095093 130.18566895 186.34095093 130.18566895 154.38095093 C124.57566895 154.38095093 118.96566895 154.38095093 113.18566895 154.38095093 Z M174.18566895 154.38095093 C174.18566895 185.40095093 174.18566895 216.42095093 174.18566895 248.38095093 C192.99566895 248.38095093 211.80566895 248.38095093 231.18566895 248.38095093 C231.18566895 243.43095093 231.18566895 238.48095093 231.18566895 233.38095093 C217.98566895 233.38095093 204.78566895 233.38095093 191.18566895 233.38095093 C191.18566895 207.31095093 191.18566895 181.24095093 191.18566895 154.38095093 C185.57566895 154.38095093 179.96566895 154.38095093 174.18566895 154.38095093 Z M267.18566895 154.38095093 C267.18566895 185.40095093 267.18566895 216.42095093 267.18566895 248.38095093 C271.47566895 248.38095093 275.76566895 248.38095093 280.18566895 248.38095093 C280.51566895 221.98095093 280.84566895 195.58095093 281.18566895 168.38095093 C289.51900228 195.04761759 297.85233561 221.71428426 306.18566895 248.38095093 C309.48566895 248.38095093 312.78566895 248.38095093 316.18566895 248.38095093 C318.85539524 240.00037738 321.52442463 231.61958228 324.19260025 223.2385149 C325.43198155 219.34553911 326.67158964 215.45263587 327.91174316 211.55990601 C329.1118324 207.79290392 330.31129048 204.02570138 331.51033783 200.25836754 C331.96454827 198.83163194 332.41897408 197.40496489 332.87363434 195.97837257 C333.51763055 193.95756273 334.16081164 191.93649497 334.80383301 189.91537476 C335.16801331 188.7717598 335.5321936 187.62814484 335.90740967 186.44987488 C337.69232368 180.76817987 339.43425065 175.07306039 341.18566895 169.38095093 C341.51566895 195.45095093 341.84566895 221.52095093 342.18566895 248.38095093 C347.79566895 248.38095093 353.40566895 248.38095093 359.18566895 248.38095093 C359.18566895 217.36095093 359.18566895 186.34095093 359.18566895 154.38095093 C350.27566895 154.38095093 341.36566895 154.38095093 332.18566895 154.38095093 C329.83655658 161.60540363 327.48858671 168.83005837 325.15139771 176.05834961 C324.06267594 179.42436883 322.97189711 182.7896891 321.87609863 186.15341187 C320.61865814 190.01364256 319.37067359 193.87687273 318.12316895 197.74032593 C317.72944092 198.94461243 317.33571289 200.14889893 316.93005371 201.38967896 C316.56968018 202.51053894 316.20930664 203.63139893 315.8380127 204.78622437 C315.51824463 205.7721759 315.19847656 206.75812744 314.86901855 207.7739563 C314.01663183 210.57665358 314.01663183 210.57665358 314.18566895 214.38095093 C313.52566895 214.38095093 312.86566895 214.38095093 312.18566895 214.38095093 C311.80390503 212.51007813 311.80390503 212.51007813 311.41442871 210.60140991 C310.14391395 204.89706219 308.35667573 199.3989369 306.5255127 193.85360718 C306.00060997 192.24841469 306.00060997 192.24841469 305.46510315 190.61079407 C304.72999377 188.36547478 303.99285534 186.12081888 303.25378418 183.87680054 C302.11909968 180.43109375 300.99073418 176.98336667 299.86340332 173.5352478 C299.14697124 171.34958132 298.43018694 169.16403025 297.7130127 166.97860718 C297.37446762 165.94534805 297.03592255 164.91208893 296.68711853 163.84751892 C296.37331741 162.89570236 296.0595163 161.9438858 295.73620605 160.96322632 C295.46022079 160.12433365 295.18423553 159.28544098 294.89988708 158.42112732 C294.22364523 156.35143339 294.22364523 156.35143339 293.18566895 154.38095093 C284.60566895 154.38095093 276.02566895 154.38095093 267.18566895 154.38095093 Z M116.84191895 278.52938843 C105.94814883 290.70780125 101.5990983 306.08944802 101.93566895 322.18173218 C103.11612013 337.28781844 107.37400124 351.43267371 118.18566895 362.38095093 C128.24551141 370.96995 139.27478996 372.38590583 152.18566895 371.38095093 C163.26193614 369.54763774 171.87244656 363.82608975 178.5020752 354.88876343 C188.45966147 340.05634954 190.30709145 321.58195869 187.12316895 304.25595093 C184.09183843 291.93415373 178.41730063 281.13174222 168.18566895 273.38095093 C151.96659935 263.66300631 130.77981604 265.70915289 116.84191895 278.52938843 Z M20.18566895 269.38095093 C20.18566895 302.38095093 20.18566895 335.38095093 20.18566895 369.38095093 C25.79566895 369.38095093 31.40566895 369.38095093 37.18566895 369.38095093 C37.51566895 356.51095093 37.84566895 343.64095093 38.18566895 330.38095093 C54.56066895 330.13095093 54.56066895 330.13095093 59.66369629 330.08309937 C71.0294401 329.88268603 79.96664545 328.34340877 88.49816895 320.22470093 C94.16145515 314.03703637 96.11644366 306.90359034 96.2208252 298.57626343 C95.69020379 289.23214996 92.16553462 281.70142837 85.18566895 275.38095093 C67.02468573 263.28618824 37.78314198 269.38095093 20.18566895 269.38095093 Z M202.18566895 269.38095093 C202.16254795 282.40205732 202.1447551 295.42315887 202.13385677 308.44428158 C202.12862741 314.4898291 202.1215288 320.53536263 202.11022949 326.5809021 C202.0994025 332.40989381 202.09339251 338.23887202 202.0907917 344.067873 C202.08893711 346.29712703 202.08531586 348.52638027 202.07993889 350.75562859 C202.07273095 353.86634827 202.0716779 356.97701141 202.07214355 360.08773804 C202.06854828 361.01921661 202.064953 361.95069519 202.06124878 362.91040039 C201.65408084 366.9669434 201.65408084 366.9669434 203.18566895 370.38095093 C208.79566895 370.38095093 214.40566895 370.38095093 220.18566895 370.38095093 C220.18566895 356.52095093 220.18566895 342.66095093 220.18566895 328.38095093 C233.05566895 328.87595093 233.05566895 328.87595093 246.18566895 329.38095093 C247.79248535 333.69479858 247.79248535 333.69479858 249.4317627 338.09579468 C250.46699431 340.86939681 251.50316497 343.64264639 252.53942871 346.41586304 C253.26111656 348.34876388 253.98182208 350.2820318 254.70153809 352.21566772 C255.73405253 354.98917349 256.77005094 357.76135555 257.8067627 360.53329468 C258.1297081 361.40308456 258.4526535 362.27287445 258.78538513 363.16902161 C259.08562088 363.96977615 259.38585663 364.7705307 259.69519043 365.59555054 C259.95944321 366.30392563 260.22369598 367.01230072 260.49595642 367.74214172 C261.06755656 369.38865416 261.06755656 369.38865416 262.18566895 370.38095093 C263.52834308 370.46726967 264.87541216 370.48801566 266.2208252 370.47860718 C267.02971191 370.47538452 267.83859863 370.47216187 268.67199707 370.46884155 C269.52213379 370.46046265 270.37227051 370.45208374 271.24816895 370.44345093 C272.10217285 370.43893921 272.95617676 370.43442749 273.83605957 370.42977905 C275.95262558 370.41795466 278.0691558 370.40001861 280.18566895 370.38095093 C279.56423548 365.08379534 277.84521362 360.64504218 275.8067627 355.77157593 C275.47523697 354.9635553 275.14371124 354.15553467 274.80213928 353.32302856 C273.74834647 350.75654093 272.68638431 348.19354788 271.62316895 345.63095093 C270.55735539 343.05369418 269.49336793 340.475729 268.43348694 337.89602661 C267.7750143 336.29412335 267.11295654 334.69368823 266.44700623 333.09487915 C264.18566895 327.60487243 264.18566895 327.60487243 264.18566895 325.38095093 C265.72473145 324.33798218 265.72473145 324.33798218 267.81066895 323.19345093 C273.93346344 319.48726381 278.46811245 314.63789495 280.71691895 307.74423218 C282.32040304 299.65999988 282.12370762 290.75429993 278.18566895 283.38095093 C272.92407946 275.58600354 266.6608389 272.02592842 257.65122986 269.81176758 C252.73988424 268.95358985 247.78130146 269.13974506 242.81066895 269.18563843 C241.06306274 269.18988327 241.06306274 269.18988327 239.28015137 269.19421387 C235.58188332 269.20535285 231.88386303 269.23044614 228.18566895 269.25595093 C225.66874537 269.26598883 223.15181798 269.27511326 220.6348877 269.28329468 C214.48506448 269.30527163 208.33538442 269.33868649 202.18566895 269.38095093 Z M286.18566895 269.38095093 C286.18566895 274.33095093 286.18566895 279.28095093 286.18566895 284.38095093 C299.05566895 284.87595093 299.05566895 284.87595093 312.18566895 285.38095093 C312.18043213 287.92032349 312.17519531 290.45969604 312.1697998 293.07601929 C312.15326434 301.44596154 312.1421979 309.81590449 312.13385677 318.18585873 C312.12862784 323.26286111 312.12153002 328.33984682 312.11022949 333.4168396 C312.09940096 338.31215645 312.09339218 343.20745722 312.0907917 348.10278511 C312.08893739 349.97478043 312.08531667 351.84677483 312.07993889 353.71876335 C312.0727289 356.33135792 312.07167798 358.94388519 312.07214355 361.55648804 C312.06854828 362.3383548 312.064953 363.12022156 312.06124878 363.92578125 C311.74282933 367.44617912 311.74282933 367.44617912 313.18566895 370.38095093 C315.63471563 370.48139434 318.04941792 370.51969509 320.49816895 370.50595093 C321.17557129 370.50981812 321.85297363 370.5136853 322.55090332 370.51766968 C326.00794414 370.51091104 328.80300571 370.22661674 332.18566895 369.38095093 C332.18566895 341.33095093 332.18566895 313.28095093 332.18566895 284.38095093 C340.76566895 284.38095093 349.34566895 284.38095093 358.18566895 284.38095093 C358.18566895 279.43095093 358.18566895 274.48095093 358.18566895 269.38095093 C334.42566895 269.38095093 310.66566895 269.38095093 286.18566895 269.38095093 Z " fill="#D0D0D0" transform="translate(59.8143310546875,15.619049072265625)"/>
<path d="M0 0 C5.69399979 3.09982228 8.96716426 8.40574923 11.5234375 14.2265625 C15.74813077 28.70278419 16.68877987 47.90845621 10.3359375 61.9140625 C7.18610654 67.352153 3.25947472 70.94586422 -2.4140625 73.6015625 C-9.25036301 74.99672587 -15.37295602 74.77222602 -21.4765625 71.2265625 C-30.13944984 64.04075733 -32.22145085 53.05401423 -33.22265625 42.3828125 C-34.20114658 28.89160173 -32.65051703 14.82562299 -24.234375 3.8125 C-17.6658282 -2.11378889 -8.21070702 -2.56422711 0 0 Z " fill="#C9C9C9" transform="translate(214.4765625,298.7734375)"/>
<path d="M0 0 C4.805625 -0.061875 9.61125 -0.12375 14.5625 -0.1875 C16.81622437 -0.22846802 16.81622437 -0.22846802 19.11547852 -0.27026367 C20.91650024 -0.28150269 20.91650024 -0.28150269 22.75390625 -0.29296875 C23.97408447 -0.3086792 25.1942627 -0.32438965 26.45141602 -0.34057617 C31.98082881 0.1901105 35.75447059 1.83570077 39.875 5.6875 C42.79403931 10.23776716 43.65805392 13.82517846 42.5546875 19.1484375 C41.0656933 23.7523391 39.26699223 26.4785955 35 29 C28.04435973 31.74693833 20.9406311 31.22109045 13.5625 31.125 C9.086875 31.08375 4.61125 31.0425 0 31 C0 20.77 0 10.54 0 0 Z " fill="#CACACA" transform="translate(280,299)"/>
<path d="M0 0 C6.991875 -0.0928125 6.991875 -0.0928125 14.125 -0.1875 C15.58437988 -0.21481201 17.04375977 -0.24212402 18.54736328 -0.27026367 C19.70993652 -0.27775635 20.87250977 -0.28524902 22.0703125 -0.29296875 C23.25383301 -0.3086792 24.43735352 -0.32438965 25.65673828 -0.34057617 C30.67133584 0.17025803 33.90399478 1.81512949 37.3125 5.5 C40.20371289 9.78327835 40.64991797 13.94920889 40 19 C38.40545972 23.76440951 35.89630285 26.76414703 31.40991211 29.20605469 C25.87667738 31.02897834 19.81596218 30.3944678 14.0625 30.25 C7.1015625 30.12625 7.1015625 30.12625 0 30 C0 20.1 0 10.2 0 0 Z " fill="#CACACA" transform="translate(97,300)"/>
<path d="M0 0 C4.14422261 -0.09953791 8.28779575 -0.17177901 12.43286133 -0.21972656 C13.84021134 -0.23973246 15.24747938 -0.26694662 16.65454102 -0.30175781 C31.16415591 -0.65151103 31.16415591 -0.65151103 37 4 C40.43626263 7.76880418 40.51209617 11.65892606 40.3515625 16.5625 C39.82577497 20.20796018 38.44465904 22.2910535 36 25 C31.00040433 28.71764806 26.17146354 29.12603997 20.078125 29.1328125 C18.97082031 29.13410156 17.86351562 29.13539062 16.72265625 29.13671875 C15.57667969 29.13285156 14.43070313 29.12898438 13.25 29.125 C12.08855469 29.12886719 10.92710937 29.13273437 9.73046875 29.13671875 C8.62832031 29.13542969 7.52617187 29.13414063 6.390625 29.1328125 C5.38032227 29.13168457 4.37001953 29.13055664 3.32910156 29.12939453 C1 29 1 29 0 28 C-0.08767112 25.92737924 -0.10695873 23.85179706 -0.09765625 21.77734375 C-0.09443359 20.51728516 -0.09121094 19.25722656 -0.08789062 17.95898438 C-0.07953403 16.61848891 -0.07106907 15.27799412 -0.0625 13.9375 C-0.0574866 12.59310058 -0.05292342 11.2486994 -0.04882812 9.90429688 C-0.03699488 6.60282059 -0.02050971 3.30143197 0 0 Z " fill="#D9D9D9" transform="translate(151,75)"/>
<path d="M0 0 C0.66 0 1.32 0 2 0 C3.85513775 5.65877739 5.70645454 11.31878471 7.55419922 16.97998047 C8.18367616 18.90675837 8.81420665 20.83319241 9.44580078 22.75927734 C10.35204048 25.52352183 11.25451761 28.2889699 12.15625 31.0546875 C12.44060913 31.9193161 12.72496826 32.7839447 13.01794434 33.67477417 C13.27821411 34.47545319 13.53848389 35.2761322 13.80664062 36.10107422 C14.03758423 36.8072287 14.26852783 37.51338318 14.50646973 38.24093628 C15 40 15 40 15 42 C5.76 42 -3.48 42 -13 42 C-11.26252227 35.62924831 -9.55252952 29.40194152 -7.51953125 23.14453125 C-7.30181564 22.47201828 -7.08410004 21.79950531 -6.85978699 21.10661316 C-6.17973631 19.00779465 -5.49619967 16.91013228 -4.8125 14.8125 C-4.34416694 13.36921657 -3.8760664 11.92585766 -3.40820312 10.48242188 C-2.27480931 6.98740883 -1.13829151 3.49342143 0 0 Z " fill="#D8D8D8" transform="translate(273,78)"/>
</svg>
